<?xml version="1.0" encoding="utf-8"?>
<!-- Generator: Adobe Illustrator 23.0.1, SVG Export Plug-In . SVG Version: 6.00 Build 0)  -->
<svg version="1.1" id="Layer_1" xmlns="http://www.w3.org/2000/svg" xmlns:xlink="http://www.w3.org/1999/xlink" x="0px" y="0px"
	 viewBox="0 0 595.3 138.9" style="enable-background:new 0 0 595.3 138.9;" xml:space="preserve">
<style type="text/css">
	.st0{fill:#0000FF;}
</style>
<g>
	<g>
		<path d="M46.4,21.9H31.8v33.4H19.9V21.9H5.3V11.2h41.1V21.9z"/>
		<path d="M110.7,55.4H98.7V38.1h-18v17.2h-12V11.2h12v16.2h18V11.2h11.9V55.4z"/>
		<path d="M166,55.4H136V11.2h29.5v8.9H148v8.1h16.7v8.9H148v9.4h18V55.4z"/>
		<path d="M296.7,55.4h-14.6l-15.2-20.7v20.7h-12V11.2h12V31l14.4-19.8h13l-14.8,20.7L296.7,55.4z"/>
		<path d="M329.3,55.4h-12V11.2h12V55.4z"/>
		<path d="M36.8,113H20.3v17.9h-12V86.7h28.4v8.9H20.3v8.5h16.5V113z"/>
		<path d="M102.7,108.7c0,4.1-0.9,7.9-2.6,11.4c-1.7,3.5-4.3,6.2-7.6,8.3c-3.4,2-7.5,3.1-12.3,3.1c-4.9,0-9.1-1.1-12.5-3.2
			c-3.4-2.1-5.9-4.9-7.6-8.4c-1.7-3.5-2.5-7.2-2.5-11.1c0-4,0.8-7.7,2.5-11.1c1.6-3.5,4.2-6.2,7.6-8.4c3.4-2.1,7.6-3.2,12.5-3.2
			c3.7,0,6.9,0.6,9.8,1.8c2.9,1.2,5.2,2.9,7.1,4.9c1.9,2.1,3.3,4.5,4.2,7.2S102.7,105.7,102.7,108.7z M90.5,108.7
			c0-1.7-0.2-3.2-0.7-4.5c-0.4-1.4-1.1-2.6-2-3.6c-0.9-1-2-1.8-3.3-2.4c-1.3-0.6-2.8-0.8-4.4-0.8c-3.2,0-5.7,1-7.6,3.1
			c-1.8,2.1-2.8,4.8-2.8,8.2c0,3.4,0.9,6.1,2.8,8.2s4.4,3.1,7.5,3.1c2.2,0,4.1-0.5,5.6-1.5c1.5-1,2.7-2.3,3.5-4
			C90.1,112.9,90.5,111,90.5,108.7z"/>
		<path d="M166.9,111.1c0,3.8-0.6,7-1.9,9.7s-3,4.8-5,6.3c-2.1,1.6-4.3,2.7-6.8,3.3c-2.4,0.7-4.8,1-7.2,1c-3.4,0-6.6-0.6-9.8-1.9
			c-3.2-1.3-5.8-3.4-8-6.5c-2.1-3.1-3.2-7-3.2-12V86.7h11.9v20.9c0,2.9,0.4,5.3,1.1,7.2c0.8,1.9,1.8,3.3,3.2,4.2s2.9,1.3,4.8,1.3
			c1.8,0,3.3-0.4,4.7-1.3c1.4-0.9,2.4-2.3,3.2-4.1c0.8-1.9,1.1-4.3,1.1-7.2v-21h12V111.1z"/>
		<path d="M234.7,130.9h-10.7l-20.6-24.6v24.6h-11.9V86.7h10.6l20.5,24.5V86.7h11.9V130.9z"/>
		<path d="M300.9,109.6c0,4.5-0.7,8.2-2.2,10.9c-1.5,2.7-3.2,5-5.2,6.7c-2.8,2.5-6.8,3.7-11.9,3.7h-21.4V86.7h16.5
			c2.5,0,4.6,0.1,6.4,0.4c1.8,0.3,3.4,0.7,4.8,1.2c1.4,0.5,2.6,1.1,3.6,1.8c1,0.6,1.9,1.3,2.7,2.1c1.4,1.2,2.5,2.7,3.6,4.4
			c1,1.7,1.8,3.6,2.4,5.8C300.6,104.6,300.9,107,300.9,109.6z M288.7,109c0-3.6-0.6-6.4-1.8-8.4c-1.2-2-2.7-3.4-4.4-4
			c-1.7-0.7-3.5-1-5.3-1h-5.1v26.2h5.1c3.1,0,5.8-0.8,8.1-2.5C287.6,117.6,288.7,114.2,288.7,109z"/>
		<path d="M364.8,130.9h-12.3l-3.2-9H332l-3.3,9h-12.3L334,86.7h13.2L364.8,130.9z M346.5,114.2l-5.8-16.1l-5.9,16.1H346.5z"/>
		<path d="M417.6,97.4h-14.6v33.4h-11.9V97.4h-14.6V86.7h41.1V97.4z"/>
		<path d="M452,130.9h-12V86.7h12V130.9z"/>
		<path d="M519.9,108.7c0,4.1-0.9,7.9-2.6,11.4c-1.7,3.5-4.3,6.2-7.6,8.3c-3.4,2-7.5,3.1-12.3,3.1c-4.9,0-9.1-1.1-12.5-3.2
			c-3.4-2.1-5.9-4.9-7.6-8.4c-1.7-3.5-2.5-7.2-2.5-11.1c0-4,0.8-7.7,2.5-11.1c1.6-3.5,4.2-6.2,7.6-8.4c3.4-2.1,7.6-3.2,12.5-3.2
			c3.7,0,6.9,0.6,9.8,1.8c2.9,1.2,5.2,2.9,7.1,4.9c1.9,2.1,3.3,4.5,4.2,7.2S519.9,105.7,519.9,108.7z M507.7,108.7
			c0-1.7-0.2-3.2-0.7-4.5c-0.4-1.4-1.1-2.6-2-3.6c-0.9-1-2-1.8-3.3-2.4c-1.3-0.6-2.8-0.8-4.4-0.8c-3.2,0-5.7,1-7.6,3.1
			c-1.8,2.1-2.8,4.8-2.8,8.2c0,3.4,0.9,6.1,2.8,8.2s4.4,3.1,7.5,3.1c2.2,0,4.1-0.5,5.6-1.5c1.5-1,2.7-2.3,3.5-4
			C507.3,112.9,507.7,111,507.7,108.7z"/>
		<path d="M585,130.9h-10.7l-20.6-24.6v24.6h-11.9V86.7h10.6l20.5,24.5V86.7H585V130.9z"/>
	</g>
</g>
<rect x="419.5" y="27.5" transform="matrix(-1 -1.224647e-16 1.224647e-16 -1 1004.1022 67.0238)" class="st0" width="165.1" height="12"/>
</svg>
